<svg xmlns="http://www.w3.org/2000/svg" viewBox="0 0 64 64" aria-labelledby="title"
aria-describedby="desc" role="img" xmlns:xlink="http://www.w3.org/1999/xlink">
  <title>Reddit</title>
  <desc>A solid styled icon from Orion Icon Library.</desc>
  <circle data-name="layer2"
  cx="22.5" cy="36.4" r="4.3" fill="#ff4500"></circle>
  <path data-name="layer1" d="M64 32.9a9.585 9.585 0 0 0-9.4-9.7 8.356 8.356 0 0 0-4.9 1.5 34.055 34.055 0 0 0-16.1-4.4l3.5-10.1 7.3 1.7c0 .2-.1.5-.1.7a7.376 7.376 0 1 0 1.1-3.8L35 6.3l-4.9 14a33.784 33.784 0 0 0-16 4.7c.1-.1.2-.1.2-.2a9.068 9.068 0 0 0-5.1-1.6c-5 0-9.2 4.4-9.2 9.7a9.5 9.5 0 0 0 4.7 8.3c1.1 10 13 17.8 27.5 17.8 14.6 0 26.5-8 27.5-18a9.638 9.638 0 0 0 4.3-8.1zM51.6 8.6a4 4 0 1 1-4 4 4.012 4.012 0 0 1 4-4zM9.4 26.5a7.789 7.789 0 0 1 2.1.4 17.149 17.149 0 0 0-6.7 10.3 6.452 6.452 0 0 1 4.6-10.7zm22.8 29.3c-13.4 0-24.4-7.2-24.4-16.2 0-8.9 10.9-16.2 24.4-16.2 13.4 0 24.3 7.2 24.3 16.2S45.6 55.8 32.2 55.8zm27.2-19a17.742 17.742 0 0 0-6.6-10 5.663 5.663 0 0 1 1.8-.3 6.257 6.257 0 0 1 6.1 6.4 5.44 5.44 0 0 1-1.3 3.9z"
  fill="#ff4500"></path>
  <circle data-name="layer2" cx="41" cy="36.4" r="4.3" fill="#ff4500"></circle>
  <path data-name="layer1" d="M40.3 46c-9.1 6-16.5.3-16.8.1a1.7 1.7 0 0 0-2.3.2 1.607 1.607 0 0 0 .2 2.3A17.783 17.783 0 0 0 31.8 52a18.23 18.23 0 0 0 10.3-3.3 1.623 1.623 0 1 0-1.8-2.7z"
  fill="#ff4500"></path>
</svg>